<svg width="13" height="14" viewBox="0 0 13 14" fill="none" xmlns="http://www.w3.org/2000/svg">
<path d="M5.19531 1.61104C4.92188 1.89541 4.94922 2.32197 5.19531 2.60635L8.50391 5.84822H0.65625C0.273438 5.84822 0 6.16104 0 6.53072V7.44072C0 7.83885 0.273438 8.12322 0.65625 8.12322H8.50391L5.19531 11.3935C4.94922 11.6779 4.94922 12.1045 5.19531 12.3888L5.79688 13.0145C6.07031 13.2704 6.48047 13.2704 6.72656 13.0145L12.0586 7.46916C12.3047 7.21322 12.3047 6.78666 12.0586 6.50229L6.72656 0.98541C6.48047 0.729473 6.07031 0.729473 5.79688 0.98541L5.19531 1.61104Z" fill="white"/>
</svg>
