<svg width="93" height="78" viewBox="0 0 93 78" fill="none" xmlns="http://www.w3.org/2000/svg">
<path d="M92.0279 51.2181C91.9689 50.8241 91.7559 50.4701 91.4359 50.2341L58.3709 25.7911L61.8379 21.1011C62.0069 21.1231 62.1759 21.1421 62.347 21.1421C62.549 21.1421 62.752 21.1271 62.955 21.0971C64.023 20.9371 64.964 20.3701 65.606 19.5021L68.1439 16.0691C69.4689 14.2771 69.0889 11.7401 67.2959 10.4151L54.6679 1.08012C52.8749 -0.243878 50.3389 0.136122 49.0139 1.92812L46.4749 5.36212C45.5759 6.57912 45.4799 8.13112 46.0599 9.42112L32.3839 27.9221C32.0189 27.8761 31.648 27.8611 31.275 27.9171C30.207 28.0771 29.2659 28.6441 28.6239 29.5121L26.0859 32.9451C25.4439 33.8131 25.1779 34.8801 25.3379 35.9481C25.4979 37.0161 26.0649 37.9571 26.9329 38.5991L39.561 47.9341C40.264 48.4541 41.0969 48.7271 41.9559 48.7271C42.1579 48.7271 42.3609 48.7121 42.5639 48.6821C43.6319 48.5221 44.5729 47.9551 45.2149 47.0871L47.7529 43.6531C48.3949 42.7851 48.6609 41.7181 48.5009 40.6511C48.4449 40.2771 48.3219 39.9271 48.1709 39.5921L51.6449 34.8921L75.1269 52.2501L84.7099 59.3341C84.978 59.5321 85.2909 59.6281 85.6009 59.6281C86.0599 59.6281 86.514 59.4181 86.8079 59.0201L91.7509 52.3331C91.9879 52.0121 92.0869 51.6111 92.0279 51.2181ZM50.1249 31.9011C50.1249 31.9021 50.1239 31.9021 50.1249 31.9011L46.073 37.3821L35.1109 29.2791L48.1579 11.6301L59.1199 19.7331L51.0779 30.6121L50.1249 31.9011ZM48.8889 7.14412L51.4269 3.71112C51.6319 3.43512 51.9479 3.28812 52.2669 3.28812C52.4819 3.28812 52.6999 3.35412 52.886 3.49212L65.514 12.8271C65.976 13.1691 66.075 13.8241 65.733 14.2861L63.195 17.7191C63.0289 17.9431 62.786 18.0891 62.511 18.1311C62.232 18.1731 61.9609 18.1031 61.7369 17.9381L49.1089 8.60312C48.646 8.26012 48.5469 7.60612 48.8889 7.14412ZM45.3409 41.8681L42.8019 45.3021C42.6359 45.5261 42.3939 45.6721 42.1179 45.7141C41.8449 45.7561 41.568 45.6871 41.344 45.5211L28.7159 36.1861C28.4919 36.0201 28.346 35.7771 28.304 35.5021C28.263 35.2271 28.331 34.9521 28.497 34.7281L31.0349 31.2941C31.2399 31.0181 31.5549 30.8721 31.8749 30.8721C32.0899 30.8721 32.3079 30.9381 32.4939 31.0761L45.122 40.4111C45.346 40.5771 45.4919 40.8201 45.5339 41.0951C45.5749 41.3701 45.5069 41.6451 45.3409 41.8681ZM56.5879 28.2041L78.8639 44.6711L75.704 48.9461L53.4279 32.4791L56.5879 28.2041ZM85.287 56.0291L78.1159 50.7281L81.276 46.4531L88.4469 51.7541L85.287 56.0291Z" fill="#183B56"/>
<path d="M50.0829 61.2122H12.0829C11.2539 61.2122 10.5829 61.8832 10.5829 62.7122V75.7122C10.5829 76.5412 11.2539 77.2122 12.0829 77.2122H50.0829C50.9119 77.2122 51.5829 76.5412 51.5829 75.7122V62.7122C51.5829 61.8832 50.9119 61.2122 50.0829 61.2122ZM48.5829 74.2122H13.5829V64.2122H48.5829V74.2122Z" fill="#183B56"/>
<path d="M11.1209 53.5252C11.8269 53.5252 12.4549 53.0252 12.5929 52.3072C12.7489 51.4942 12.2159 50.7072 11.4019 50.5522L2.48695 48.8442C1.66795 48.6822 0.886948 49.2222 0.731948 50.0352C0.575948 50.8482 1.10895 51.6352 1.92295 51.7902L10.8379 53.4982C10.9329 53.5172 11.0279 53.5252 11.1209 53.5252Z" fill="#183B56"/>
<path d="M2.17696 41.6522L13.561 47.9492C13.791 48.0762 14.04 48.1372 14.286 48.1372C14.814 48.1372 15.327 47.8572 15.6 47.3632C16.001 46.6382 15.739 45.7252 15.014 45.3242L3.62996 39.0272C2.90496 38.6252 1.99196 38.8882 1.59096 39.6132C1.18996 40.3382 1.45196 41.2512 2.17696 41.6522Z" fill="#183B56"/>
<path d="M16.0269 41.6541C16.3229 42.0241 16.7589 42.2161 17.1979 42.2161C17.5269 42.2161 17.8579 42.1081 18.1349 41.8861C18.7809 41.3681 18.8849 40.4241 18.3669 39.7781L12.5159 32.4761C11.9979 31.8301 11.0549 31.7261 10.4079 32.2441C9.76194 32.7621 9.65794 33.7061 10.1759 34.3521L16.0269 41.6541Z" fill="#183B56"/>
</svg>
