<svg width="15" height="20" viewBox="0 0 15 20" fill="none" xmlns="http://www.w3.org/2000/svg">
<path fill-rule="evenodd" clip-rule="evenodd" d="M0.357147 7.18161C0.357147 3.38389 3.53458 0.285606 7.42858 0.285606C11.3226 0.285606 14.5 3.38275 14.5 7.18161C14.5 12.7782 7.42858 19.2742 7.42858 19.2742C7.42858 19.2742 0.357147 12.7782 0.357147 7.18161ZM7.42858 9.78046C7.78579 9.78046 8.13951 9.71224 8.46953 9.57968C8.79955 9.44712 9.09942 9.25283 9.35201 9.0079C9.6046 8.76296 9.80496 8.47218 9.94166 8.15216C10.0784 7.83214 10.1487 7.48914 10.1487 7.14275C10.1487 6.79636 10.0784 6.45336 9.94166 6.13334C9.80496 5.81332 9.6046 5.52254 9.35201 5.2776C9.09942 5.03267 8.79955 4.83838 8.46953 4.70582C8.13951 4.57326 7.78579 4.50503 7.42858 4.50503C6.70715 4.50503 6.01527 4.78294 5.50514 5.2776C4.99502 5.77227 4.70843 6.44318 4.70843 7.14275C4.70843 7.84231 4.99502 8.51323 5.50514 9.0079C6.01527 9.50256 6.70715 9.78046 7.42858 9.78046Z" fill="#1565D8"/>
</svg>
