<svg width="24" height="24" viewBox="0 0 24 24" fill="none" xmlns="http://www.w3.org/2000/svg">
<rect width="24" height="24" fill="#F2720C"/>
<path d="M11.8112 7.28258C12.6449 7.28258 13.3229 7.96059 13.3229 8.7943C13.3229 9.62549 12.6449 10.3035 11.8112 10.3035C10.9774 10.3035 10.2994 9.62549 10.2994 8.7943C10.2994 7.96059 10.9774 7.28258 11.8112 7.28258ZM11.8112 12.443C13.8251 12.443 15.4624 10.8057 15.4624 8.7943C15.4624 6.78034 13.8251 5.14307 11.8112 5.14307C9.7972 5.14307 8.16243 6.78034 8.16243 8.7943C8.16243 10.8057 9.7972 12.443 11.8112 12.443ZM13.2877 15.4212C14.031 15.2505 14.7467 14.9567 15.4071 14.5423C15.9069 14.2284 16.0575 13.568 15.7436 13.0683C15.4272 12.5661 14.7693 12.4154 14.2671 12.7318C12.7729 13.671 10.8494 13.671 9.35272 12.7318C8.853 12.4154 8.19257 12.5661 7.87867 13.0683C7.56478 13.568 7.71545 14.2284 8.21517 14.5423C8.8756 14.9567 9.59128 15.2505 10.3346 15.4212L8.29301 17.4603C7.87616 17.8772 7.87616 18.5552 8.29301 18.972C8.50395 19.1805 8.77516 19.2859 9.04887 19.2859C9.32259 19.2859 9.59631 19.1805 9.80725 18.972L11.8112 16.9681L13.8176 18.972C14.2344 19.3914 14.9099 19.3914 15.3293 18.972C15.7461 18.5552 15.7461 17.8772 15.3293 17.4603L13.2877 15.4212Z" fill="white"/>
</svg>
