<svg width="32" height="32" viewBox="0 0 32 32" fill="none" xmlns="http://www.w3.org/2000/svg">
<rect y="0.809525" width="32" height="30.4762" rx="4" fill="#1565D8"/>
<path d="M22.8767 19.8974C21.6811 18.8817 20.4067 18.2546 19.2126 19.2717L18.4965 19.8974C17.9367 20.3674 16.9808 22.4789 13.1575 18.1774C9.3341 13.8773 11.6448 13.1716 12.1227 12.703L12.8389 12.0773C14.0344 11.0602 13.555 9.73157 12.6795 8.40155L12.1227 7.62011C11.3262 6.29009 10.3689 5.43008 9.09587 6.44581L8.45718 6.99439C7.80266 7.46578 7.25322 8.06255 6.84239 8.7483C6.43155 9.43405 6.16792 10.1944 6.06757 10.983C5.67004 13.7973 7.02342 17.0831 10.211 20.6803C13.3972 24.2775 16.5029 26.0761 19.3719 25.9975C21.8419 25.9975 23.2742 24.6689 23.7521 24.1989L24.3894 23.6518C25.5849 22.6346 24.8673 21.5403 23.5928 20.5232L22.8767 19.8974Z" fill="white"/>
</svg>
