<svg width="12" height="13" viewBox="0 0 12 13" fill="none" xmlns="http://www.w3.org/2000/svg">
<path d="M10.6589 8.83846C9.90387 8.22903 9.09895 7.85274 8.3448 8.46303L7.8925 8.83846C7.53896 9.12047 6.93527 10.3873 4.52051 7.80645C2.10575 5.22641 3.56513 4.80297 3.86697 4.52183L4.31928 4.14639C5.07435 3.5361 4.77158 2.73894 4.21866 1.94093L3.86697 1.47207C3.3639 0.674054 2.75928 0.158046 1.95529 0.767484L1.5519 1.09663C1.13852 1.37947 0.791509 1.73753 0.532033 2.14898C0.272557 2.56043 0.106054 3.01665 0.0426775 3.48981C-0.208399 5.17841 0.646368 7.14987 2.65959 9.30819C4.67189 11.4665 6.63342 12.5457 8.44542 12.4985C10.0054 12.4985 10.91 11.7014 11.2119 11.4194L11.6143 11.0911C12.3694 10.4808 11.9162 9.82419 11.1113 9.2139L10.6589 8.83846Z" fill="#1565D8"/>
</svg>
