<svg width="66" height="84" viewBox="0 0 66 84" fill="none" xmlns="http://www.w3.org/2000/svg">
<path d="M65.492 14.262C65.489 14.211 65.484 14.161 65.477 14.111C65.469 14.062 65.46 14.014 65.448 13.967C65.436 13.92 65.422 13.873 65.405 13.828C65.388 13.782 65.37 13.737 65.348 13.693C65.327 13.65 65.305 13.609 65.28 13.569C65.255 13.527 65.228 13.487 65.199 13.448C65.17 13.41 65.14 13.373 65.108 13.338C65.076 13.303 65.043 13.269 65.008 13.237C64.972 13.204 64.935 13.173 64.895 13.144C64.857 13.116 64.819 13.089 64.778 13.065C64.736 13.039 64.693 13.016 64.649 12.995C64.605 12.974 64.561 12.955 64.515 12.938C64.469 12.921 64.423 12.907 64.375 12.895C64.326 12.882 64.276 12.872 64.225 12.864C64.199 12.86 64.175 12.851 64.149 12.849C52.233 11.657 42.914 9.23395 33.288 0.853954C32.663 0.309954 31.714 0.375954 31.172 0.999954C31.137 1.03995 31.111 1.08495 31.081 1.12795C21.401 9.47995 13.317 11.703 1.851 12.848C1.084 12.925 0.5 13.57 0.5 14.341V49.472C0.5 49.605 0.517999 49.737 0.552999 49.865C6.636 72.299 31.169 82.957 32.21 83.4C32.398 83.48 32.598 83.52 32.797 83.52C32.994 83.52 33.193 83.481 33.378 83.403C34.432 82.961 59.246 72.304 65.329 49.866C65.35 49.787 65.366 49.707 65.374 49.625L65.492 48.464C65.497 48.414 65.5 48.363 65.5 48.312V14.342C65.5 14.313 65.494 14.288 65.492 14.262ZM62.402 49.195C57.152 68.294 36.55 78.63 32.8 80.371C29.083 78.625 8.78 68.312 3.499 49.268V15.69C14.368 14.487 22.798 11.996 32.352 3.97595C41.82 11.829 51.344 14.45 62.499 15.685V48.234L62.402 49.195Z" fill="#183B56"/>
<path d="M47 32.8399H45.56C44.768 26.1969 39.061 21.0249 32.151 21.0249C25.241 21.0249 19.534 26.1969 18.743 32.8399H17.001C16.173 32.8399 15.501 33.5109 15.501 34.3399V56.3399C15.501 57.1689 16.173 57.8399 17.001 57.8399H47.001C47.829 57.8399 48.501 57.1689 48.501 56.3399V34.3399C48.5 33.5109 47.828 32.8399 47 32.8399ZM32.15 24.0249C37.402 24.0249 41.754 27.8569 42.527 32.8399H21.773C22.547 27.8569 26.898 24.0249 32.15 24.0249ZM45.5 35.8399V54.8399H18.5V35.8399H45.5Z" fill="#183B56"/>
</svg>
