<svg width="15" height="15" viewBox="0 0 15 15" fill="none" xmlns="http://www.w3.org/2000/svg">
<path d="M15 13.9395L10.0927 9.03225C10.8157 8.0865 11.25 6.9075 11.25 5.625C11.25 2.5185 8.7315 0 5.625 0C2.5185 0 0 2.5185 0 5.625C0 8.7315 2.5185 11.25 5.625 11.25C6.9075 11.25 8.0865 10.8157 9.03225 10.0927L13.9395 15L15 13.9395ZM1.5 5.625C1.5 3.35025 3.35025 1.5 5.625 1.5C7.89975 1.5 9.75 3.35025 9.75 5.625C9.75 7.89975 7.89975 9.75 5.625 9.75C3.35025 9.75 1.5 7.89975 1.5 5.625Z" fill="#C3CAD9"/>
</svg>
