<svg width="24" height="24" viewBox="0 0 24 24" fill="none" xmlns="http://www.w3.org/2000/svg">
<rect width="24" height="24" fill="url(#paint0_linear_2049_80)"/>
<path d="M3.97655 11.7786C5.51109 10.9333 7.22405 10.2279 8.82456 9.51879C11.5781 8.35738 14.3425 7.2161 17.1348 6.15358C17.6781 5.97253 18.6543 5.79548 18.75 6.60061C18.6976 7.74025 18.482 8.87322 18.3341 10.0062C17.9587 12.4977 17.5249 14.9807 17.1018 17.464C16.956 18.2911 15.9198 18.7193 15.2568 18.19C13.6634 17.1137 12.0577 16.0479 10.4847 14.9466C9.9694 14.423 10.4472 13.6711 10.9074 13.2972C12.2198 12.0039 13.6116 10.9051 14.8554 9.54488C15.1909 8.73467 14.1996 9.4175 13.8726 9.62671C12.076 10.8648 10.3233 12.1785 8.42906 13.2666C7.46149 13.7992 6.33377 13.3441 5.36664 13.0468C4.49948 12.6878 3.22877 12.3261 3.97646 11.7787L3.97655 11.7786Z" fill="white"/>
<defs>
<linearGradient id="paint0_linear_2049_80" x1="9.0014" y1="1.0008" x2="3.0014" y2="15" gradientUnits="userSpaceOnUse">
<stop stop-color="#37AEE2"/>
<stop offset="1" stop-color="#1E96C8"/>
</linearGradient>
</defs>
</svg>
