<svg width="24" height="24" viewBox="0 0 24 24" fill="none" xmlns="http://www.w3.org/2000/svg">
<rect width="24" height="24" fill="#7B519C"/>
<g clip-path="url(#clip0_2049_76)">
<path d="M11.6244 4.50218C10.4207 4.51671 7.83271 4.71453 6.38521 6.0425C5.3085 7.10937 4.93256 8.68671 4.8885 10.6372C4.85193 12.5806 4.80787 16.2303 8.32584 17.2241V18.7377C8.32584 18.7377 8.30381 19.3433 8.70412 19.4675C9.19725 19.6236 9.47803 19.1577 9.94678 18.657L10.821 17.6684C13.228 17.8686 15.0716 17.4073 15.284 17.3389C15.7724 17.1828 18.5235 16.8312 18.973 13.1811C19.4343 9.4114 18.7485 7.03625 17.5105 5.96187H17.503C17.1294 5.61781 15.628 4.52375 12.2737 4.51156C12.2737 4.51156 12.0247 4.49468 11.6244 4.50171V4.50218ZM11.6657 5.56203C12.0074 5.55968 12.2151 5.57421 12.2151 5.57421C15.0543 5.58171 16.4094 6.43625 16.7291 6.72406C17.7716 7.6175 18.3088 9.75875 17.9155 12.9059C17.5419 15.9575 15.3107 16.1506 14.8977 16.2823C14.7219 16.3386 13.0982 16.7389 11.0526 16.6072C11.0526 16.6072 9.52912 18.4456 9.05287 18.9191C8.9774 19.002 8.88928 19.0264 8.83303 19.0142C8.7524 18.9945 8.72803 18.8947 8.73271 18.7578L8.74725 16.2458C5.76365 15.4208 5.93943 12.3078 5.97131 10.6817C6.00787 9.05562 6.31303 7.72531 7.22146 6.82437C8.44443 5.71859 10.6419 5.56953 11.6647 5.56203H11.6657ZM11.8907 7.18765C11.8661 7.1874 11.8418 7.19202 11.819 7.20123C11.7962 7.21044 11.7755 7.22407 11.758 7.24132C11.7406 7.25858 11.7267 7.27912 11.7172 7.30177C11.7077 7.32442 11.7028 7.34872 11.7027 7.37328C11.7027 7.47828 11.788 7.56125 11.8907 7.56125C12.3554 7.55241 12.8174 7.63567 13.2498 7.80623C13.6822 7.97678 14.0766 8.23127 14.4102 8.555C15.0913 9.2164 15.4232 10.1052 15.4358 11.2672C15.4358 11.3698 15.5188 11.4552 15.6238 11.4552V11.4477C15.6733 11.4478 15.7208 11.4283 15.756 11.3936C15.7912 11.3588 15.8113 11.3115 15.8118 11.262C15.8345 10.7151 15.7458 10.1692 15.5511 9.65757C15.3563 9.14596 15.0595 8.67929 14.6788 8.28593C13.9368 7.56078 12.9965 7.18718 11.8907 7.18718V7.18765ZM9.4199 7.6175C9.28722 7.59811 9.1519 7.62474 9.03646 7.69296H9.02662C8.75862 7.85006 8.51719 8.04861 8.31131 8.28125C8.14021 8.47906 8.0474 8.67921 8.02303 8.87187C8.0085 8.98671 8.01834 9.10156 8.05256 9.21125L8.06475 9.21875C8.2574 9.785 8.50912 10.3297 8.81662 10.8425C9.21272 11.5629 9.70019 12.2292 10.2669 12.8248L10.2838 12.8492L10.3105 12.8689L10.3274 12.8886L10.3471 12.9055C10.9449 13.4739 11.6128 13.9636 12.3346 14.3628C13.1596 14.8119 13.6602 15.0242 13.9607 15.1123V15.117C14.0488 15.1437 14.129 15.1559 14.2096 15.1559C14.4657 15.1372 14.7081 15.0332 14.8982 14.8606C15.1298 14.6547 15.3261 14.4123 15.4794 14.143V14.1383C15.6233 13.8673 15.5746 13.6109 15.3669 13.4375C14.9511 13.074 14.5014 12.7511 14.024 12.4733C13.7043 12.2998 13.3794 12.4048 13.2477 12.5806L12.9669 12.9345C12.823 13.1103 12.5615 13.0859 12.5615 13.0859L12.554 13.0906C10.6035 12.5923 10.0832 10.6175 10.0832 10.6175C10.0832 10.6175 10.0588 10.3489 10.2393 10.212L10.5908 9.9289C10.7591 9.79203 10.8763 9.46765 10.6958 9.1475C10.4199 8.66944 10.0978 8.21963 9.73396 7.80453C9.65443 7.70667 9.54285 7.64008 9.41896 7.61656L9.4199 7.6175ZM12.2151 8.17437C11.9662 8.17437 11.9662 8.55031 12.2174 8.55031C12.5269 8.55533 12.8324 8.62129 13.1164 8.74443C13.4004 8.86757 13.6573 9.04547 13.8726 9.26796C14.0689 9.48453 14.2197 9.7383 14.3162 10.0142C14.4127 10.2902 14.4528 10.5827 14.4341 10.8744C14.435 10.9237 14.4551 10.9708 14.4903 11.0055C14.5254 11.0402 14.5727 11.0598 14.6221 11.06L14.6296 11.0698C14.6793 11.0695 14.7269 11.0495 14.7621 11.0144C14.7973 10.9792 14.8172 10.9316 14.8176 10.8819C14.8344 10.137 14.6029 9.51218 14.1487 9.01156C13.6921 8.51093 13.0551 8.23015 12.2418 8.17437H12.2151ZM12.523 9.185C12.2666 9.1775 12.2568 9.56093 12.5108 9.56843C13.1287 9.60031 13.4287 9.9125 13.468 10.5547C13.4689 10.6034 13.4888 10.6499 13.5235 10.6842C13.5582 10.7184 13.6049 10.7377 13.6537 10.738H13.6612C13.6862 10.7369 13.7108 10.7308 13.7335 10.7201C13.7562 10.7095 13.7766 10.6944 13.7934 10.6757C13.8102 10.6571 13.8231 10.6353 13.8314 10.6116C13.8397 10.5879 13.8431 10.5628 13.8416 10.5378C13.7976 9.70062 13.341 9.22906 12.5305 9.18546H12.523V9.185Z" fill="white"/>
</g>
<defs>
<clipPath id="clip0_2049_76">
<rect width="15" height="15" fill="white" transform="translate(4.5 4.5)"/>
</clipPath>
</defs>
</svg>
