<svg width="24" height="24" viewBox="0 0 24 24" fill="none" xmlns="http://www.w3.org/2000/svg">
<rect width="24" height="24" fill="#48729E"/>
<path fill-rule="evenodd" clip-rule="evenodd" d="M11.8391 16.2164H12.7357C12.7357 16.2164 13.0064 16.1885 13.1449 16.0492C13.2721 15.9212 13.268 15.6811 13.268 15.6811C13.268 15.6811 13.2505 14.5564 13.8087 14.3908C14.3593 14.2275 15.0661 15.4778 15.8152 15.9585C16.3817 16.3222 16.8121 16.2426 16.8121 16.2426L18.8153 16.2164C18.8153 16.2164 19.8632 16.1559 19.3663 15.3858C19.3256 15.3229 19.0769 14.816 17.8768 13.7747C16.6207 12.6848 16.7891 12.8612 18.3021 10.9759C19.2235 9.82778 19.5919 9.12689 19.4768 8.82666C19.3671 8.54066 18.6894 8.61621 18.6894 8.61621L16.434 8.62929C16.434 8.62929 16.2666 8.60796 16.1427 8.67734C16.0214 8.74514 15.9436 8.90355 15.9436 8.90355C15.9436 8.90355 15.5865 9.79193 15.1106 10.5476C14.1063 12.1418 13.7047 12.2262 13.5405 12.1271C13.1585 11.8963 13.254 11.2003 13.254 10.7056C13.254 9.16057 13.5047 8.51636 12.7658 8.34966C12.5207 8.2943 12.3401 8.25771 11.7131 8.25179C10.9082 8.24408 10.2272 8.25406 9.84154 8.43069C9.58494 8.54821 9.38697 8.80987 9.50761 8.82498C9.65672 8.84355 9.99424 8.91016 10.1732 9.1378C10.4044 9.43186 10.3963 10.092 10.3963 10.092C10.3963 10.092 10.5291 11.9107 10.0861 12.1366C9.78211 12.2916 9.36505 11.9752 8.46964 10.5288C8.01095 9.78798 7.66456 8.96887 7.66456 8.96887C7.66456 8.96887 7.59785 8.81585 7.47863 8.73393C7.33412 8.63468 7.13219 8.60322 7.13219 8.60322L4.98891 8.61621C4.98891 8.61621 4.66723 8.6246 4.54902 8.75541C4.44386 8.87184 4.54062 9.11237 4.54062 9.11237C4.54062 9.11237 6.2185 12.7823 8.11849 14.6317C9.86092 16.3277 11.8391 16.2164 11.8391 16.2164Z" fill="white"/>
</svg>
