<svg width="24" height="24" viewBox="0 0 24 24" fill="none" xmlns="http://www.w3.org/2000/svg">
<rect width="24" height="24" fill="#3BE459"/>
<g clip-path="url(#clip0_2049_71)">
<path fill-rule="evenodd" clip-rule="evenodd" d="M15.3844 13.4887C15.1981 13.3956 14.285 12.9468 14.115 12.8843C13.945 12.8225 13.8213 12.7918 13.6969 12.9781C13.5731 13.1631 13.2175 13.5818 13.1094 13.7056C13.0006 13.83 12.8925 13.845 12.7069 13.7525C12.5213 13.6587 11.9225 13.4631 11.2131 12.8306C10.6613 12.3381 10.2881 11.73 10.18 11.5437C10.0719 11.3581 10.1681 11.2575 10.2613 11.165C10.345 11.0818 10.4469 10.9481 10.54 10.84C10.6331 10.7312 10.6638 10.6537 10.7256 10.5293C10.7881 10.4056 10.7569 10.2975 10.71 10.2043C10.6638 10.1112 10.2925 9.19684 10.1375 8.82496C9.98688 8.46309 9.83375 8.51246 9.72 8.50621C9.61125 8.50121 9.4875 8.49996 9.36375 8.49996C9.24 8.49996 9.03875 8.54621 8.86875 8.73246C8.69813 8.91809 8.21875 9.36747 8.21875 10.2818C8.21875 11.1956 8.88375 12.0787 8.97688 12.2031C9.07 12.3268 10.2863 14.2031 12.1494 15.0075C12.5931 15.1987 12.9388 15.3131 13.2081 15.3981C13.6531 15.54 14.0581 15.52 14.3781 15.4718C14.7344 15.4187 15.4769 15.0225 15.6319 14.5887C15.7863 14.155 15.7863 13.7831 15.74 13.7056C15.6938 13.6281 15.57 13.5818 15.3838 13.4887H15.3844ZM11.9956 18.1156H11.9931C10.8865 18.1158 9.80023 17.8183 8.84813 17.2543L8.62313 17.1206L6.28438 17.7343L6.90875 15.4543L6.76188 15.2206C6.14321 14.2358 5.81581 13.0961 5.8175 11.9331C5.81875 8.52684 8.59 5.75559 11.9981 5.75559C13.6481 5.75559 15.1994 6.39934 16.3656 7.56684C16.9409 8.1397 17.3968 8.82094 17.707 9.57115C18.0173 10.3214 18.1757 11.1256 18.1731 11.9375C18.1719 15.3437 15.4006 18.1156 11.9956 18.1156ZM17.2531 6.67996C16.5645 5.98679 15.7451 5.43718 14.8426 5.06296C13.94 4.68875 12.9721 4.49739 11.995 4.49996C7.89875 4.49996 4.56375 7.83434 4.5625 11.9325C4.56188 13.2425 4.90375 14.5212 5.55438 15.6481L4.5 19.5L8.44 18.4662C9.52992 19.06 10.7513 19.3712 11.9925 19.3712H11.9956C16.0919 19.3712 19.4269 16.0368 19.4281 11.9381C19.4311 10.9614 19.2405 9.99378 18.8671 9.09124C18.4938 8.18869 17.9452 7.36913 17.2531 6.67996Z" fill="white"/>
</g>
<defs>
<clipPath id="clip0_2049_71">
<rect width="15" height="15" fill="white" transform="translate(4.5 4.5)"/>
</clipPath>
</defs>
</svg>
