<svg width="37" height="33" viewBox="0 0 37 33" fill="none" xmlns="http://www.w3.org/2000/svg">
<path d="M32.9121 16.2563H27.2376V11.7167C27.2376 9.23408 29.2237 7.17707 31.7772 7.17707H32.3446C33.2667 7.17707 34.047 6.46776 34.047 5.47472V2.07002C34.047 1.14792 33.2667 0.367676 32.3446 0.367676H31.7772C25.4643 0.367676 20.4282 5.47472 20.4282 11.7167V28.7402C20.4282 30.6553 21.9177 32.1449 23.8329 32.1449H32.9121C34.7563 32.1449 36.3168 30.6553 36.3168 28.7402V19.661C36.3168 17.8168 34.7563 16.2563 32.9121 16.2563ZM12.4839 16.2563H6.8094V11.7167C6.8094 9.23408 8.79547 7.17707 11.349 7.17707H11.9164C12.8386 7.17707 13.6188 6.46776 13.6188 5.47472V2.07002C13.6188 1.14792 12.8386 0.367676 11.9164 0.367676H11.349C5.03612 0.367676 0 5.47472 0 11.7167V28.7402C0 30.6553 1.48956 32.1449 3.4047 32.1449H12.4839C14.3281 32.1449 15.8886 30.6553 15.8886 28.7402V19.661C15.8886 17.8168 14.3281 16.2563 12.4839 16.2563Z" fill="#1565D8"/>
</svg>
