<svg width="40" height="41" viewBox="0 0 40 41" fill="none" xmlns="http://www.w3.org/2000/svg">
<rect width="39.1623" height="40.9928" rx="2.36801" fill="#1565D8"/>
<path d="M5.91992 18.162C5.91992 11.4009 11.4008 5.92002 18.1619 5.92002V22.8308C18.1619 29.5919 12.681 35.0728 5.91992 35.0728V18.162Z" fill="white"/>
<path d="M19.9375 12.5722C19.9375 8.89831 22.9158 5.92002 26.5897 5.92002C30.2636 5.92002 33.2419 8.89831 33.2419 12.5722V12.9563C33.2419 16.6302 30.2636 19.6085 26.5897 19.6085C22.9158 19.6085 19.9375 16.6302 19.9375 12.9563V12.5722Z" fill="white"/>
<path d="M19.9375 28.0365C19.9375 24.3626 22.9158 21.3843 26.5897 21.3843C30.2636 21.3843 33.2419 24.3626 33.2419 28.0365V28.4206C33.2419 32.0945 30.2636 35.0728 26.5897 35.0728C22.9158 35.0728 19.9375 32.0945 19.9375 28.4206V28.0365Z" fill="#36B37E"/>
</svg>
