<svg width="227" height="41" viewBox="0 0 227 41" fill="none" xmlns="http://www.w3.org/2000/svg">
<rect width="39.1623" height="40.9928" rx="2.36801" fill="#1565D8"/>
<path d="M5.92001 18.162C5.92001 11.4009 11.4009 5.92002 18.162 5.92002V5.92002V22.8308C18.162 29.5919 12.6811 35.0728 5.92001 35.0728V35.0728V18.162Z" fill="white"/>
<path d="M19.9378 12.5722C19.9378 8.89831 22.9161 5.92002 26.59 5.92002V5.92002C30.2639 5.92002 33.2422 8.89831 33.2422 12.5722V12.9563C33.2422 16.6302 30.2639 19.6085 26.59 19.6085V19.6085C22.9161 19.6085 19.9378 16.6302 19.9378 12.9563V12.5722Z" fill="white"/>
<path d="M19.9378 28.0365C19.9378 24.3626 22.9161 21.3843 26.59 21.3843V21.3843C30.2639 21.3843 33.2422 24.3626 33.2422 28.0365V28.4206C33.2422 32.0945 30.2639 35.0728 26.59 35.0728V35.0728C22.9161 35.0728 19.9378 32.0945 19.9378 28.4206V28.0365Z" fill="#36B37E"/>
<path d="M57.4321 14.4122H58.9683V11.2881H57.6306V0.258902H56.0944V11.2881H49.3285V0.258902H47.7923V12.6862H57.4321V14.4122Z" fill="#183B56"/>
<path d="M60.3497 12.6862H68.2031V11.2277H61.8859V7.06802H67.1675V5.60954H61.8859V1.71738H68.2031V0.258902H60.3497V12.6862Z" fill="#183B56"/>
<path d="M70.2777 12.6862H71.8138V7.19747H78.3554V12.6862H79.8916V0.258902H78.3554V5.73899H71.8138V0.258902H70.2777V12.6862Z" fill="#183B56"/>
<path d="M85.5143 12.6862H87.0505V1.71738H91.2879V0.258902H81.277V1.71738H85.5143V12.6862Z" fill="#183B56"/>
<path d="M92.6619 12.6862H94.1981V8.095H97.5724C97.8054 8.095 98.1679 8.07774 98.4872 8.02596C100.489 7.71528 101.56 6.15324 101.56 4.17695C101.56 2.20067 100.498 0.638625 98.4872 0.327942C98.1679 0.276162 97.8141 0.258902 97.5724 0.258902H92.6619V12.6862ZM94.1981 6.63652V1.71738H97.5206C97.7364 1.71738 98.0385 1.73464 98.2974 1.79505C99.4883 2.06259 99.9888 3.14134 99.9888 4.17695C99.9888 5.21256 99.4883 6.29132 98.2974 6.55885C98.0385 6.61926 97.7364 6.63652 97.5206 6.63652H94.1981Z" fill="#183B56"/>
<path d="M106.736 12.6862H111.647C111.888 12.6862 112.242 12.6689 112.562 12.6258C114.538 12.3755 115.634 10.779 115.634 8.85445C115.634 6.92994 114.529 5.33338 112.562 5.08311C112.242 5.03996 111.88 5.0227 111.647 5.0227H108.272V1.71738H114.624V0.258902H106.736V12.6862ZM108.272 11.2277V6.48118H111.595C111.811 6.48118 112.113 6.49844 112.372 6.55022C113.563 6.79186 114.063 7.81884 114.063 8.85445C114.063 9.89005 113.563 10.917 112.372 11.1587C112.113 11.2105 111.811 11.2277 111.595 11.2277H108.272Z" fill="#183B56"/>
<path d="M115.97 12.6862H117.566L118.542 9.77786H123.849L124.833 12.6862H126.429L122.27 0.258902H120.13L115.97 12.6862ZM119.025 8.33664L121.182 1.87272L123.366 8.33664H119.025Z" fill="#183B56"/>
<path d="M127.974 12.6862H129.511V7.19747H136.052V12.6862H137.588V0.258902H136.052V5.73899H129.511V0.258902H127.974V12.6862Z" fill="#183B56"/>
<path d="M140.009 12.6862H141.545V6.61063L147.371 12.6862H149.356L143.271 6.29132L148.916 0.258902H146.982L141.545 6.09282V0.258902H140.009V12.6862Z" fill="#183B56"/>
<path d="M150.561 12.6862H152.097V8.095H155.471C155.704 8.095 156.067 8.07774 156.386 8.02596C158.388 7.71528 159.458 6.15324 159.458 4.17695C159.458 2.20067 158.397 0.638625 156.386 0.327942C156.067 0.276162 155.713 0.258902 155.471 0.258902H150.561V12.6862ZM152.097 6.63652V1.71738H155.42C155.635 1.71738 155.937 1.73464 156.196 1.79505C157.387 2.06259 157.888 3.14134 157.888 4.17695C157.888 5.21256 157.387 6.29132 156.196 6.55885C155.937 6.61926 155.635 6.63652 155.42 6.63652H152.097Z" fill="#183B56"/>
<path d="M166.289 12.9451C170.008 12.9451 172.088 10.3043 172.088 6.47255C172.088 2.6408 170.008 0 166.289 0C162.569 0 160.49 2.6408 160.49 6.47255C160.49 10.3043 162.569 12.9451 166.289 12.9451ZM162.121 6.47255C162.138 3.49518 163.51 1.44985 166.289 1.46711C169.068 1.48437 170.457 3.49518 170.457 6.47255C170.457 9.44992 169.068 11.4952 166.289 11.478C163.51 11.4607 162.103 9.44992 162.121 6.47255Z" fill="#183B56"/>
<path d="M176.686 12.6862H178.222V1.71738H182.46V0.258902H172.449V1.71738H176.686V12.6862Z" fill="#183B56"/>
<path d="M188.943 12.9451C191.817 12.9451 193.707 11.3658 194.414 8.8976L192.852 8.48335C192.343 10.3302 191.04 11.478 188.943 11.478C186.164 11.478 184.749 9.44992 184.766 6.47255C184.783 3.49518 186.164 1.46711 188.943 1.46711C191.04 1.46711 192.343 2.61491 192.852 4.46174L194.414 4.0475C193.707 1.5793 191.817 0 188.943 0C185.223 0 183.143 2.6408 183.143 6.47255C183.143 10.3043 185.223 12.9451 188.943 12.9451Z" fill="#183B56"/>
<path d="M199.509 12.6862H201.045V1.71738H205.282V0.258902H195.271V1.71738H199.509V12.6862Z" fill="#183B56"/>
<path d="M206.656 12.6862H211.929C214.208 12.6862 215.623 11.3054 215.623 9.13061C215.623 7.7498 214.898 6.64515 213.638 6.11009C214.501 5.60954 215.027 4.66887 215.027 3.5297C215.027 1.80368 213.724 0.258902 211.498 0.258902H206.656V12.6862ZM208.21 11.2191V6.89542H211.808C213.129 6.89542 214.044 7.87062 214.044 9.12198C214.044 10.4337 213.008 11.2191 211.636 11.2191H208.21ZM208.21 5.44557V1.70875H211.481C212.646 1.70875 213.448 2.45957 213.448 3.5297C213.448 4.69476 212.577 5.44557 211.481 5.44557H208.21Z" fill="#183B56"/>
<path d="M216.48 12.6862H218.076L219.052 9.77786H224.359L225.343 12.6862H226.939L222.78 0.258902H220.639L216.48 12.6862ZM219.535 8.33664L221.692 1.87272L223.876 8.33664H219.535Z" fill="#183B56"/>
<g opacity="0.5">
<path d="M48.1951 28.285H49.0912V21.8866H52.9574V28.285H53.8535V21.0358H48.1951V28.285Z" fill="#183B56"/>
<path d="M58.2448 28.4361C60.4146 28.4361 61.6278 26.8956 61.6278 24.6604C61.6278 22.4252 60.4146 20.8848 58.2448 20.8848C56.0751 20.8848 54.8618 22.4252 54.8618 24.6604C54.8618 26.8956 56.0751 28.4361 58.2448 28.4361ZM55.8133 24.6604C55.8234 22.9236 56.6238 21.7305 58.2448 21.7406C59.8658 21.7506 60.6764 22.9236 60.6764 24.6604C60.6764 26.3972 59.8658 27.5903 58.2448 27.5803C56.6238 27.5702 55.8032 26.3972 55.8133 24.6604Z" fill="#183B56"/>
<path d="M62.6389 28.285H63.4897V23.0042L65.9514 28.285H66.4297L68.8914 23.0042V28.28H69.7422V21.0358H68.9166L66.1931 26.81L63.4544 21.0358H62.6389V28.285Z" fill="#183B56"/>
<path d="M74.134 28.4361C76.3038 28.4361 77.517 26.8956 77.517 24.6604C77.517 22.4252 76.3038 20.8848 74.134 20.8848C71.9643 20.8848 70.7511 22.4252 70.7511 24.6604C70.7511 26.8956 71.9643 28.4361 74.134 28.4361ZM71.7025 24.6604C71.7126 22.9236 72.513 21.7305 74.134 21.7406C75.7551 21.7506 76.5656 22.9236 76.5656 24.6604C76.5656 26.3972 75.7551 27.5903 74.134 27.5803C72.513 27.5702 71.6925 26.3972 71.7025 24.6604Z" fill="#183B56"/>
<path d="M77.4226 28.285H78.5553L81.3996 24.7913V28.285H82.2957V24.7913L85.14 28.285H86.2727L83.222 24.5547L86.0159 21.0358H84.9135L82.2957 24.3886V21.0358H81.3996V24.3886L78.7818 21.0358H77.6793L80.4733 24.5547L77.4226 28.285Z" fill="#183B56"/>
<path d="M87.0823 28.285H91.6635V27.4343H87.9784V25.0078H91.0594V24.157H87.9784V21.8866H91.6635V21.0358H87.0823V28.285Z" fill="#183B56"/>
<path d="M92.8736 28.285H93.7244V23.0042L96.1861 28.285H96.6644L99.1261 23.0042V28.28H99.9769V21.0358H99.1513L96.4278 26.81L93.6892 21.0358H92.8736V28.285Z" fill="#183B56"/>
<path d="M103.404 28.285H106.48C107.809 28.285 108.635 27.4796 108.635 26.2109C108.635 25.4055 108.212 24.7611 107.477 24.449C107.98 24.157 108.287 23.6083 108.287 22.9437C108.287 21.9369 107.527 21.0358 106.228 21.0358H103.404V28.285ZM104.31 27.4292V24.9071H106.41C107.18 24.9071 107.713 25.476 107.713 26.2059C107.713 26.9711 107.109 27.4292 106.309 27.4292H104.31ZM104.31 24.0613V21.8815H106.218C106.898 21.8815 107.366 22.3195 107.366 22.9437C107.366 23.6234 106.858 24.0613 106.218 24.0613H104.31Z" fill="#183B56"/>
<path d="M109.135 28.285H110.066L110.635 26.5885H113.731L114.305 28.285H115.236L112.809 21.0358H111.561L109.135 28.285ZM110.917 25.7478L112.175 21.9772L113.449 25.7478H110.917Z" fill="#183B56"/>
<path d="M116.137 28.285H116.988V23.0042L119.45 28.285H119.928L122.39 23.0042V28.28H123.24V21.0358H122.415L119.691 26.81L116.953 21.0358H116.137V28.285Z" fill="#183B56"/>
<path d="M132.261 28.285V21.0358H131.355L127.574 26.6993V21.0358H126.668V28.285H127.574L131.355 22.6165V28.285H132.261Z" fill="#183B56"/>
<path d="M136.07 28.4361C137.676 28.4361 138.793 27.5702 138.793 26.2109C138.793 25.3501 138.37 24.8064 137.671 24.5698C138.179 24.2577 138.526 23.6536 138.526 22.9085C138.526 21.5392 137.379 20.8848 136.14 20.8848C135.018 20.8848 134.162 21.4285 133.694 22.1735L134.383 22.7625C134.721 22.1584 135.294 21.7355 136.115 21.7355C136.981 21.7355 137.575 22.1836 137.575 22.9337C137.575 23.6636 137.001 24.0915 136.105 24.1318C135.909 24.1419 135.44 24.1419 135.35 24.1419V24.9977C135.44 24.9977 135.45 24.9977 136.17 25.0229C137.082 25.0531 137.842 25.2897 137.842 26.2009C137.842 27.0064 137.253 27.5803 136.105 27.5803C134.977 27.5803 134.353 27.0265 134.111 26.3871L133.316 26.8805C133.683 27.696 134.575 28.4361 136.07 28.4361Z" fill="#183B56"/>
<path d="M139.853 28.285H142.717C142.858 28.285 143.065 28.275 143.251 28.2498C144.404 28.1038 145.043 27.1725 145.043 26.0499C145.043 24.9272 144.399 23.9959 143.251 23.8499C143.065 23.8247 142.853 23.8147 142.717 23.8147H140.749V21.8866H144.454V21.0358H139.853V28.285ZM140.749 27.4343V24.6654H142.687C142.813 24.6654 142.989 24.6755 143.14 24.7057C143.835 24.8467 144.127 25.4457 144.127 26.0499C144.127 26.654 143.835 27.253 143.14 27.394C142.989 27.4242 142.813 27.4343 142.687 27.4343H140.749Z" fill="#183B56"/>
<path d="M145.239 28.285H146.171L146.739 26.5885H149.835L150.409 28.285H151.341L148.914 21.0358H147.666L145.239 28.285ZM147.021 25.7478L148.28 21.9772L149.554 25.7478H147.021Z" fill="#183B56"/>
<path d="M152.242 28.285H155.318C156.647 28.285 157.472 27.4796 157.472 26.2109C157.472 25.4055 157.05 24.7611 156.315 24.449C156.818 24.157 157.125 23.6083 157.125 22.9437C157.125 21.9369 156.365 21.0358 155.066 21.0358H152.242V28.285ZM153.148 27.4292V24.9071H155.247C156.017 24.9071 156.551 25.476 156.551 26.2059C156.551 26.9711 155.947 27.4292 155.147 27.4292H153.148ZM153.148 24.0613V21.8815H155.056C155.736 21.8815 156.204 22.3195 156.204 22.9437C156.204 23.6234 155.695 24.0613 155.056 24.0613H153.148Z" fill="#183B56"/>
<path d="M164.069 28.285V21.0358H163.162L159.382 26.6993V21.0358H158.476V28.285H159.382L163.162 22.6165V28.285H164.069Z" fill="#183B56"/>
<path d="M167.344 28.285H168.24V21.8866H170.712V21.0358H164.872V21.8866H167.344V28.285Z" fill="#183B56"/>
<path d="M171.508 28.285H174.373C174.514 28.285 174.72 28.275 174.906 28.2448C176.079 28.0635 176.699 27.1523 176.699 25.9995C176.699 24.8467 176.074 23.9355 174.906 23.7543C174.72 23.724 174.509 23.714 174.373 23.714H172.404V21.0358H171.508V28.285ZM172.404 27.4343V24.5648H174.343C174.468 24.5648 174.645 24.5748 174.796 24.6101C175.49 24.7661 175.782 25.3954 175.782 25.9995C175.782 26.6036 175.49 27.2329 174.796 27.3889C174.645 27.4242 174.468 27.4343 174.343 27.4343H172.404Z" fill="#183B56"/>
<path d="M180.786 28.4361C182.463 28.4361 183.565 27.5148 183.978 26.075L183.067 25.8334C182.77 26.9107 182.01 27.5803 180.786 27.5803C179.165 27.5803 178.34 26.3972 178.35 24.6604C178.36 22.9236 179.165 21.7406 180.786 21.7406C182.01 21.7406 182.77 22.4101 183.067 23.4874L183.978 23.2458C183.565 21.806 182.463 20.8848 180.786 20.8848C178.617 20.8848 177.403 22.4252 177.403 24.6604C177.403 26.8956 178.617 28.4361 180.786 28.4361Z" fill="#183B56"/>
<path d="M190.121 28.285V21.0358H187.257C187.116 21.0358 186.91 21.0459 186.723 21.0761C185.55 21.2573 184.931 22.1685 184.931 23.3213C184.931 24.2778 185.359 25.0682 186.18 25.4105L184.78 28.285H185.807L187.106 25.6068H189.225V28.285H190.121ZM185.847 23.3213C185.847 22.7172 186.139 22.0879 186.834 21.9319C186.985 21.8966 187.161 21.8866 187.287 21.8866H189.225V24.7561H187.287C187.161 24.7561 186.985 24.746 186.834 24.7108C186.139 24.5547 185.847 23.9254 185.847 23.3213Z" fill="#183B56"/>
<path d="M51.1753 39.9428C53.3451 39.9428 54.5583 38.4024 54.5583 36.1672C54.5583 33.932 53.3451 32.3915 51.1753 32.3915C49.0056 32.3915 47.7923 33.932 47.7923 36.1672C47.7923 38.4024 49.0056 39.9428 51.1753 39.9428ZM48.7438 36.1672C48.7539 34.4304 49.5543 33.2373 51.1753 33.2473C52.7963 33.2574 53.6068 34.4304 53.6068 36.1672C53.6068 37.904 52.7963 39.0971 51.1753 39.087C49.5543 39.0769 48.7337 37.904 48.7438 36.1672Z" fill="#183B56"/>
<path d="M57.2404 39.7918H58.1365V33.3933H60.6083V32.5425H54.7686V33.3933H57.2404V39.7918Z" fill="#183B56"/>
<path d="M63.1207 39.7918H64.0168V36.59H67.8327V39.7918H68.7288V32.5425H67.8327V35.7393H64.0168V32.5425H63.1207V39.7918Z" fill="#183B56"/>
<path d="M70.141 39.7918H74.7222V38.941H71.0371V36.5145H74.1181V35.6637H71.0371V33.3933H74.7222V32.5425H70.141V39.7918Z" fill="#183B56"/>
<path d="M75.9324 39.7918H76.8284V33.3933H80.6947V39.7918H81.5908V32.5425H75.9324V39.7918Z" fill="#183B56"/>
<path d="M85.9821 39.9428C88.1519 39.9428 89.3651 38.4024 89.3651 36.1672C89.3651 33.932 88.1519 32.3915 85.9821 32.3915C83.8124 32.3915 82.5991 33.932 82.5991 36.1672C82.5991 38.4024 83.8124 39.9428 85.9821 39.9428ZM83.5506 36.1672C83.5607 34.4304 84.3611 33.2373 85.9821 33.2473C87.6031 33.2574 88.4136 34.4304 88.4136 36.1672C88.4136 37.904 87.6031 39.0971 85.9821 39.087C84.3611 39.0769 83.5405 37.904 83.5506 36.1672Z" fill="#183B56"/>
<path d="M93.3564 39.9428C95.0328 39.9428 96.1353 39.0216 96.5481 37.5818L95.6369 37.3401C95.3399 38.4175 94.5798 39.087 93.3564 39.087C91.7354 39.087 90.9098 37.904 90.9199 36.1672C90.93 34.4304 91.7354 33.2473 93.3564 33.2473C94.5798 33.2473 95.3399 33.9169 95.6369 34.9942L96.5481 34.7526C96.1353 33.3128 95.0328 32.3915 93.3564 32.3915C91.1867 32.3915 89.9735 33.932 89.9735 36.1672C89.9735 38.4024 91.1867 39.9428 93.3564 39.9428Z" fill="#183B56"/>
<path d="M103.245 39.7918V32.5425H102.339L98.5583 38.206V32.5425H97.6522V39.7918H98.5583L102.339 34.1233V39.7918H103.245Z" fill="#183B56"/>
<path d="M104.149 39.0115V39.7918C105.564 40.1291 105.876 39.1676 106.103 37.8385C106.38 36.1873 106.465 34.6267 106.546 33.3933H109.466V39.7918H110.362V32.5425H105.695C105.624 34.1333 105.519 35.85 105.247 37.4509C105.025 38.8252 104.859 39.0769 104.149 39.0115Z" fill="#183B56"/>
<path d="M111.767 39.7918H114.631C114.772 39.7918 114.978 39.7817 115.165 39.7515C116.338 39.5703 116.957 38.6591 116.957 37.5063C116.957 36.3534 116.333 35.4422 115.165 35.261C114.978 35.2308 114.767 35.2207 114.631 35.2207H112.663V32.5425H111.767V39.7918ZM112.663 38.941V36.0715H114.601C114.727 36.0715 114.903 36.0816 115.054 36.1168C115.749 36.2729 116.041 36.9022 116.041 37.5063C116.041 38.1104 115.749 38.7396 115.054 38.8957C114.903 38.9309 114.727 38.941 114.601 38.941H112.663Z" fill="#183B56"/>
<path d="M118.064 39.7918H118.96V36.59H122.776V39.7918H123.672V32.5425H122.776V35.7393H118.96V32.5425H118.064V39.7918Z" fill="#183B56"/>
<path d="M125.08 39.7918H127.944C128.085 39.7918 128.291 39.7817 128.478 39.7515C129.651 39.5703 130.27 38.6591 130.27 37.5063C130.27 36.3534 129.646 35.4422 128.478 35.261C128.291 35.2308 128.08 35.2207 127.944 35.2207H125.976V32.5425H125.08V39.7918ZM125.976 38.941V36.0715H127.914C128.04 36.0715 128.216 36.0816 128.367 36.1168C129.062 36.2729 129.354 36.9022 129.354 37.5063C129.354 38.1104 129.062 38.7396 128.367 38.8957C128.216 38.9309 128.04 38.941 127.914 38.941H125.976ZM130.985 39.7918H131.881V32.5425H130.985V39.7918Z" fill="#183B56"/>
<path d="M132.691 39.7918H133.788L135.726 36.882L137.664 39.7918H138.757L136.27 36.1219L138.696 32.5425H137.599L135.726 35.3667L133.849 32.5425H132.756L135.183 36.1219L132.691 39.7918Z" fill="#183B56"/>
<path d="M141.221 38.941V41H142.117V39.7918H147.046V41H147.942V38.941H147.413V32.5425L142.857 32.5375C142.767 34.0981 142.721 35.2157 142.591 36.5196C142.465 37.758 142.283 38.941 141.221 38.941ZM142.792 38.941C143.245 38.4879 143.351 37.8738 143.461 36.7411C143.582 35.5278 143.623 34.5562 143.688 33.3883L146.517 33.3933V38.941H142.792Z" fill="#183B56"/>
<path d="M152.027 39.9428C154.196 39.9428 155.41 38.4024 155.41 36.1672C155.41 33.932 154.196 32.3915 152.027 32.3915C149.857 32.3915 148.644 33.932 148.644 36.1672C148.644 38.4024 149.857 39.9428 152.027 39.9428ZM149.595 36.1672C149.605 34.4304 150.406 33.2373 152.027 33.2473C153.648 33.2574 154.458 34.4304 154.458 36.1672C154.458 37.904 153.648 39.0971 152.027 39.087C150.406 39.0769 149.585 37.904 149.595 36.1672Z" fill="#183B56"/>
<path d="M155.721 39.0115V39.7918C157.135 40.1291 157.447 39.1676 157.674 37.8385C157.951 36.1873 158.036 34.6267 158.117 33.3933H161.037V39.7918H161.933V32.5425H157.266C157.196 34.1333 157.09 35.85 156.818 37.4509C156.597 38.8252 156.43 39.0769 155.721 39.0115Z" fill="#183B56"/>
<path d="M163.343 39.7918H164.239V33.3933H167.924V32.5425H163.343V39.7918Z" fill="#183B56"/>
<path d="M171.711 39.9428C173.881 39.9428 175.094 38.4024 175.094 36.1672C175.094 33.932 173.881 32.3915 171.711 32.3915C169.541 32.3915 168.328 33.932 168.328 36.1672C168.328 38.4024 169.541 39.9428 171.711 39.9428ZM169.28 36.1672C169.29 34.4304 170.09 33.2373 171.711 33.2473C173.332 33.2574 174.143 34.4304 174.143 36.1672C174.143 37.904 173.332 39.0971 171.711 39.087C170.09 39.0769 169.269 37.904 169.28 36.1672Z" fill="#183B56"/>
<path d="M176.105 39.7918H179.181C180.51 39.7918 181.336 38.9863 181.336 37.7177C181.336 36.9122 180.913 36.2678 180.178 35.9557C180.681 35.6637 180.988 35.115 180.988 34.4505C180.988 33.4437 180.228 32.5425 178.929 32.5425H176.105V39.7918ZM177.011 38.936V36.4138H179.111C179.881 36.4138 180.414 36.9827 180.414 37.7127C180.414 38.4779 179.81 38.936 179.01 38.936H177.011ZM177.011 35.5681V33.3883H178.919C179.599 33.3883 180.067 33.8263 180.067 34.4505C180.067 35.1301 179.559 35.5681 178.919 35.5681H177.011Z" fill="#183B56"/>
</g>
</svg>
